# xmcd CD database file
#
# Track frame offsets:
#	150
#	23800
#	37521
#	56147
#	80747
#
# Disc length: 1423 seconds
#
# Revision: 0
# Processed by: cddbd v1.5.2PL0 Copyright (c) Steve Scherf et al.
# Submitted via: CDex 1.50
#
DISCID=33058d05
DTITLE=Bunny Suit - The Mud Here Has Memories
DYEAR=2015
DGENRE=Jazz
TTITLE0=The Way
TTITLE1=Monkey
TTITLE2=Walking the Bardos
TTITLE3=The Trial
TTITLE4=Her
EXTD=YEAR: 2015
EXTT0=
EXTT1=
EXTT2=
EXTT3=
EXTT4=
PLAYORDER=
